<svg width="19" height="27" viewBox="0 0 19 27" fill="none" xmlns="http://www.w3.org/2000/svg">
<path d="M2.97266 26.1865H15.4014C17.1533 26.1865 18.0039 25.3105 18.0039 23.4189V13.8086C18.0039 12.1074 17.293 11.2188 15.8584 11.0791V7.99414C15.8584 3.13184 12.583 0.795898 9.18066 0.795898C5.77832 0.795898 2.51562 3.13184 2.51562 7.99414V11.1172C1.14453 11.3076 0.357422 12.1836 0.357422 13.8086V23.4189C0.357422 25.3105 1.2207 26.1865 2.97266 26.1865ZM5.19434 7.76562C5.19434 4.94727 6.98438 3.37305 9.18066 3.37305C11.377 3.37305 13.167 4.94727 13.167 7.76562V11.0537L5.19434 11.0664V7.76562Z" fill="#1C2333" fill-opacity="0.6"/>
</svg>
